<mxfile host="app.diagrams.net" modified="2024-03-10T11:04:21.122Z" agent="Mozilla/5.0 (Windows NT 10.0; Win64; x64) AppleWebKit/537.36 (KHTML, like Gecko) Chrome/122.0.0.0 Safari/537.36 Edg/122.0.0.0" etag="1yAsV2KQ1u5-agQk1R_v" version="24.0.1" type="github">
  <diagram id="C5RBs43oDa-KdzZeNtuy" name="Page-1">
    <mxGraphModel dx="2132" dy="1220" grid="1" gridSize="10" guides="1" tooltips="1" connect="1" arrows="1" fold="1" page="1" pageScale="1" pageWidth="827" pageHeight="1169" math="0" shadow="0">
      <root>
        <mxCell id="WIyWlLk6GJQsqaUBKTNV-0" />
        <mxCell id="WIyWlLk6GJQsqaUBKTNV-1" parent="WIyWlLk6GJQsqaUBKTNV-0" />
        <mxCell id="NBgfvGatJcBxBiDtq3Ce-11" style="edgeStyle=orthogonalEdgeStyle;rounded=0;orthogonalLoop=1;jettySize=auto;html=1;exitX=0.5;exitY=1;exitDx=0;exitDy=0;entryX=0.5;entryY=0;entryDx=0;entryDy=0;" edge="1" parent="WIyWlLk6GJQsqaUBKTNV-1" source="NBgfvGatJcBxBiDtq3Ce-0" target="NBgfvGatJcBxBiDtq3Ce-2">
          <mxGeometry relative="1" as="geometry" />
        </mxCell>
        <mxCell id="NBgfvGatJcBxBiDtq3Ce-0" value="开始" style="rounded=0;whiteSpace=wrap;html=1;" vertex="1" parent="WIyWlLk6GJQsqaUBKTNV-1">
          <mxGeometry x="350" y="380" width="60" height="30" as="geometry" />
        </mxCell>
        <mxCell id="NBgfvGatJcBxBiDtq3Ce-12" style="edgeStyle=orthogonalEdgeStyle;rounded=0;orthogonalLoop=1;jettySize=auto;html=1;exitX=0.5;exitY=1;exitDx=0;exitDy=0;entryX=0.5;entryY=0;entryDx=0;entryDy=0;" edge="1" parent="WIyWlLk6GJQsqaUBKTNV-1" source="NBgfvGatJcBxBiDtq3Ce-2" target="NBgfvGatJcBxBiDtq3Ce-3">
          <mxGeometry relative="1" as="geometry">
            <Array as="points">
              <mxPoint x="380" y="490" />
              <mxPoint x="380" y="490" />
            </Array>
          </mxGeometry>
        </mxCell>
        <mxCell id="NBgfvGatJcBxBiDtq3Ce-2" value="设定连接权初值" style="rounded=0;whiteSpace=wrap;html=1;" vertex="1" parent="WIyWlLk6GJQsqaUBKTNV-1">
          <mxGeometry x="320" y="440" width="120" height="30" as="geometry" />
        </mxCell>
        <mxCell id="NBgfvGatJcBxBiDtq3Ce-13" style="edgeStyle=orthogonalEdgeStyle;rounded=0;orthogonalLoop=1;jettySize=auto;html=1;exitX=0.5;exitY=1;exitDx=0;exitDy=0;entryX=0.5;entryY=0;entryDx=0;entryDy=0;" edge="1" parent="WIyWlLk6GJQsqaUBKTNV-1" source="NBgfvGatJcBxBiDtq3Ce-3" target="NBgfvGatJcBxBiDtq3Ce-4">
          <mxGeometry relative="1" as="geometry" />
        </mxCell>
        <mxCell id="NBgfvGatJcBxBiDtq3Ce-3" value="评价" style="rounded=0;whiteSpace=wrap;html=1;" vertex="1" parent="WIyWlLk6GJQsqaUBKTNV-1">
          <mxGeometry x="350" y="500" width="60" height="30" as="geometry" />
        </mxCell>
        <mxCell id="NBgfvGatJcBxBiDtq3Ce-7" style="edgeStyle=orthogonalEdgeStyle;rounded=0;orthogonalLoop=1;jettySize=auto;html=1;exitX=1;exitY=0.5;exitDx=0;exitDy=0;" edge="1" parent="WIyWlLk6GJQsqaUBKTNV-1" source="NBgfvGatJcBxBiDtq3Ce-4" target="NBgfvGatJcBxBiDtq3Ce-6">
          <mxGeometry relative="1" as="geometry" />
        </mxCell>
        <mxCell id="NBgfvGatJcBxBiDtq3Ce-8" style="edgeStyle=orthogonalEdgeStyle;rounded=0;orthogonalLoop=1;jettySize=auto;html=1;exitX=0.5;exitY=1;exitDx=0;exitDy=0;entryX=0.5;entryY=0;entryDx=0;entryDy=0;" edge="1" parent="WIyWlLk6GJQsqaUBKTNV-1" source="NBgfvGatJcBxBiDtq3Ce-4" target="NBgfvGatJcBxBiDtq3Ce-5">
          <mxGeometry relative="1" as="geometry" />
        </mxCell>
        <mxCell id="NBgfvGatJcBxBiDtq3Ce-4" value="满足要求" style="rhombus;whiteSpace=wrap;html=1;" vertex="1" parent="WIyWlLk6GJQsqaUBKTNV-1">
          <mxGeometry x="322.5" y="550" width="115" height="60" as="geometry" />
        </mxCell>
        <mxCell id="NBgfvGatJcBxBiDtq3Ce-5" value="设定连接权初值" style="rounded=0;whiteSpace=wrap;html=1;" vertex="1" parent="WIyWlLk6GJQsqaUBKTNV-1">
          <mxGeometry x="320" y="630" width="120" height="30" as="geometry" />
        </mxCell>
        <mxCell id="NBgfvGatJcBxBiDtq3Ce-6" value="评价" style="rounded=0;whiteSpace=wrap;html=1;" vertex="1" parent="WIyWlLk6GJQsqaUBKTNV-1">
          <mxGeometry x="480" y="630" width="60" height="30" as="geometry" />
        </mxCell>
        <mxCell id="NBgfvGatJcBxBiDtq3Ce-19" value="" style="endArrow=classic;html=1;rounded=0;exitX=0;exitY=0.5;exitDx=0;exitDy=0;" edge="1" parent="WIyWlLk6GJQsqaUBKTNV-1" source="NBgfvGatJcBxBiDtq3Ce-5">
          <mxGeometry width="50" height="50" relative="1" as="geometry">
            <mxPoint x="390" y="560" as="sourcePoint" />
            <mxPoint x="380" y="480" as="targetPoint" />
            <Array as="points">
              <mxPoint x="280" y="645" />
              <mxPoint x="280" y="560" />
              <mxPoint x="280" y="480" />
            </Array>
          </mxGeometry>
        </mxCell>
        <mxCell id="NBgfvGatJcBxBiDtq3Ce-45" style="edgeStyle=orthogonalEdgeStyle;rounded=0;orthogonalLoop=1;jettySize=auto;html=1;exitX=0.5;exitY=1;exitDx=0;exitDy=0;entryX=0.5;entryY=0;entryDx=0;entryDy=0;" edge="1" parent="WIyWlLk6GJQsqaUBKTNV-1" source="NBgfvGatJcBxBiDtq3Ce-21" target="NBgfvGatJcBxBiDtq3Ce-23">
          <mxGeometry relative="1" as="geometry" />
        </mxCell>
        <mxCell id="NBgfvGatJcBxBiDtq3Ce-21" value="开始" style="rounded=0;whiteSpace=wrap;html=1;" vertex="1" parent="WIyWlLk6GJQsqaUBKTNV-1">
          <mxGeometry x="840" y="290" width="60" height="30" as="geometry" />
        </mxCell>
        <mxCell id="NBgfvGatJcBxBiDtq3Ce-46" style="edgeStyle=orthogonalEdgeStyle;rounded=0;orthogonalLoop=1;jettySize=auto;html=1;exitX=0.5;exitY=1;exitDx=0;exitDy=0;entryX=0.5;entryY=0;entryDx=0;entryDy=0;" edge="1" parent="WIyWlLk6GJQsqaUBKTNV-1" source="NBgfvGatJcBxBiDtq3Ce-23" target="NBgfvGatJcBxBiDtq3Ce-32">
          <mxGeometry relative="1" as="geometry" />
        </mxCell>
        <mxCell id="NBgfvGatJcBxBiDtq3Ce-23" value="连接权值及阈值初始化" style="rounded=0;whiteSpace=wrap;html=1;" vertex="1" parent="WIyWlLk6GJQsqaUBKTNV-1">
          <mxGeometry x="805" y="340" width="130" height="30" as="geometry" />
        </mxCell>
        <mxCell id="NBgfvGatJcBxBiDtq3Ce-47" style="edgeStyle=orthogonalEdgeStyle;rounded=0;orthogonalLoop=1;jettySize=auto;html=1;exitX=0.5;exitY=1;exitDx=0;exitDy=0;entryX=0.5;entryY=0;entryDx=0;entryDy=0;" edge="1" parent="WIyWlLk6GJQsqaUBKTNV-1" source="NBgfvGatJcBxBiDtq3Ce-32" target="NBgfvGatJcBxBiDtq3Ce-33">
          <mxGeometry relative="1" as="geometry" />
        </mxCell>
        <mxCell id="NBgfvGatJcBxBiDtq3Ce-32" value="将学习模式对提供给网络" style="rounded=0;whiteSpace=wrap;html=1;" vertex="1" parent="WIyWlLk6GJQsqaUBKTNV-1">
          <mxGeometry x="800" y="390" width="140" height="30" as="geometry" />
        </mxCell>
        <mxCell id="NBgfvGatJcBxBiDtq3Ce-48" style="edgeStyle=orthogonalEdgeStyle;rounded=0;orthogonalLoop=1;jettySize=auto;html=1;exitX=0.5;exitY=1;exitDx=0;exitDy=0;entryX=0.5;entryY=0;entryDx=0;entryDy=0;" edge="1" parent="WIyWlLk6GJQsqaUBKTNV-1" source="NBgfvGatJcBxBiDtq3Ce-33" target="NBgfvGatJcBxBiDtq3Ce-34">
          <mxGeometry relative="1" as="geometry" />
        </mxCell>
        <mxCell id="NBgfvGatJcBxBiDtq3Ce-33" value="&lt;span style=&quot;color: rgba(0, 0, 0, 0.85); font-family: -apple-system, BlinkMacSystemFont, &amp;quot;Segoe UI&amp;quot;, Roboto, &amp;quot;Helvetica Neue&amp;quot;, Arial, &amp;quot;Noto Sans&amp;quot;, sans-serif, &amp;quot;Apple Color Emoji&amp;quot;, &amp;quot;Segoe UI Emoji&amp;quot;, &amp;quot;Segoe UI Symbol&amp;quot;, &amp;quot;Noto Color Emoji&amp;quot;; font-size: 14px; text-align: start; white-space: pre; background-color: rgb(255, 255, 255);&quot;&gt;计算隐含层各个单元的净输入与输出&lt;/span&gt;" style="rounded=0;whiteSpace=wrap;html=1;" vertex="1" parent="WIyWlLk6GJQsqaUBKTNV-1">
          <mxGeometry x="750" y="440" width="240" height="30" as="geometry" />
        </mxCell>
        <mxCell id="NBgfvGatJcBxBiDtq3Ce-49" style="edgeStyle=orthogonalEdgeStyle;rounded=0;orthogonalLoop=1;jettySize=auto;html=1;exitX=0.5;exitY=1;exitDx=0;exitDy=0;entryX=0.5;entryY=0;entryDx=0;entryDy=0;" edge="1" parent="WIyWlLk6GJQsqaUBKTNV-1" source="NBgfvGatJcBxBiDtq3Ce-34" target="NBgfvGatJcBxBiDtq3Ce-35">
          <mxGeometry relative="1" as="geometry" />
        </mxCell>
        <mxCell id="NBgfvGatJcBxBiDtq3Ce-34" value="&lt;span style=&quot;color: rgba(0, 0, 0, 0.85); font-family: -apple-system, BlinkMacSystemFont, &amp;quot;Segoe UI&amp;quot;, Roboto, &amp;quot;Helvetica Neue&amp;quot;, Arial, &amp;quot;Noto Sans&amp;quot;, sans-serif, &amp;quot;Apple Color Emoji&amp;quot;, &amp;quot;Segoe UI Emoji&amp;quot;, &amp;quot;Segoe UI Symbol&amp;quot;, &amp;quot;Noto Color Emoji&amp;quot;; font-size: 14px; text-align: start; white-space: pre; background-color: rgb(255, 255, 255);&quot;&gt;计算输出层各个单元的净输入与输出&lt;/span&gt;" style="rounded=0;whiteSpace=wrap;html=1;" vertex="1" parent="WIyWlLk6GJQsqaUBKTNV-1">
          <mxGeometry x="750" y="490" width="240" height="30" as="geometry" />
        </mxCell>
        <mxCell id="NBgfvGatJcBxBiDtq3Ce-50" style="edgeStyle=orthogonalEdgeStyle;rounded=0;orthogonalLoop=1;jettySize=auto;html=1;exitX=0.5;exitY=1;exitDx=0;exitDy=0;entryX=0.5;entryY=0;entryDx=0;entryDy=0;" edge="1" parent="WIyWlLk6GJQsqaUBKTNV-1" source="NBgfvGatJcBxBiDtq3Ce-35" target="NBgfvGatJcBxBiDtq3Ce-36">
          <mxGeometry relative="1" as="geometry" />
        </mxCell>
        <mxCell id="NBgfvGatJcBxBiDtq3Ce-35" value="&lt;span style=&quot;color: rgba(0, 0, 0, 0.85); font-family: -apple-system, BlinkMacSystemFont, &amp;quot;Segoe UI&amp;quot;, Roboto, &amp;quot;Helvetica Neue&amp;quot;, Arial, &amp;quot;Noto Sans&amp;quot;, sans-serif, &amp;quot;Apple Color Emoji&amp;quot;, &amp;quot;Segoe UI Emoji&amp;quot;, &amp;quot;Segoe UI Symbol&amp;quot;, &amp;quot;Noto Color Emoji&amp;quot;; font-size: 14px; text-align: start; white-space: pre; background-color: rgb(255, 255, 255);&quot;&gt;计算输出层各个单元的一般化误差&lt;/span&gt;" style="rounded=0;whiteSpace=wrap;html=1;" vertex="1" parent="WIyWlLk6GJQsqaUBKTNV-1">
          <mxGeometry x="750" y="540" width="240" height="30" as="geometry" />
        </mxCell>
        <mxCell id="NBgfvGatJcBxBiDtq3Ce-53" style="edgeStyle=orthogonalEdgeStyle;rounded=0;orthogonalLoop=1;jettySize=auto;html=1;exitX=0.5;exitY=1;exitDx=0;exitDy=0;entryX=0.5;entryY=0;entryDx=0;entryDy=0;" edge="1" parent="WIyWlLk6GJQsqaUBKTNV-1" source="NBgfvGatJcBxBiDtq3Ce-36" target="NBgfvGatJcBxBiDtq3Ce-37">
          <mxGeometry relative="1" as="geometry" />
        </mxCell>
        <mxCell id="NBgfvGatJcBxBiDtq3Ce-36" value="&lt;span style=&quot;color: rgba(0, 0, 0, 0.85); font-family: -apple-system, BlinkMacSystemFont, &amp;quot;Segoe UI&amp;quot;, Roboto, &amp;quot;Helvetica Neue&amp;quot;, Arial, &amp;quot;Noto Sans&amp;quot;, sans-serif, &amp;quot;Apple Color Emoji&amp;quot;, &amp;quot;Segoe UI Emoji&amp;quot;, &amp;quot;Segoe UI Symbol&amp;quot;, &amp;quot;Noto Color Emoji&amp;quot;; font-size: 14px; text-align: start; white-space: pre; background-color: rgb(255, 255, 255);&quot;&gt;计算隐含层各个单元的一般化误差&lt;/span&gt;" style="rounded=0;whiteSpace=wrap;html=1;" vertex="1" parent="WIyWlLk6GJQsqaUBKTNV-1">
          <mxGeometry x="750" y="590" width="240" height="30" as="geometry" />
        </mxCell>
        <mxCell id="NBgfvGatJcBxBiDtq3Ce-54" style="edgeStyle=orthogonalEdgeStyle;rounded=0;orthogonalLoop=1;jettySize=auto;html=1;exitX=0.5;exitY=1;exitDx=0;exitDy=0;entryX=0.5;entryY=0;entryDx=0;entryDy=0;" edge="1" parent="WIyWlLk6GJQsqaUBKTNV-1" source="NBgfvGatJcBxBiDtq3Ce-37" target="NBgfvGatJcBxBiDtq3Ce-38">
          <mxGeometry relative="1" as="geometry" />
        </mxCell>
        <mxCell id="NBgfvGatJcBxBiDtq3Ce-37" value="&lt;div style=&quot;&quot;&gt;&lt;span style=&quot;background-color: rgb(255, 255, 255); color: rgba(0, 0, 0, 0.85); font-family: -apple-system, BlinkMacSystemFont, &amp;quot;Segoe UI&amp;quot;, Roboto, &amp;quot;Helvetica Neue&amp;quot;, Arial, &amp;quot;Noto Sans&amp;quot;, sans-serif, &amp;quot;Apple Color Emoji&amp;quot;, &amp;quot;Segoe UI Emoji&amp;quot;, &amp;quot;Segoe UI Symbol&amp;quot;, &amp;quot;Noto Color Emoji&amp;quot;; font-size: 14px; white-space: pre;&quot;&gt;调整隐含层至输出层之间的连接权值 &lt;/span&gt;&lt;/div&gt;&lt;div style=&quot;&quot;&gt;&lt;span style=&quot;background-color: rgb(255, 255, 255); color: rgba(0, 0, 0, 0.85); font-family: -apple-system, BlinkMacSystemFont, &amp;quot;Segoe UI&amp;quot;, Roboto, &amp;quot;Helvetica Neue&amp;quot;, Arial, &amp;quot;Noto Sans&amp;quot;, sans-serif, &amp;quot;Apple Color Emoji&amp;quot;, &amp;quot;Segoe UI Emoji&amp;quot;, &amp;quot;Segoe UI Symbol&amp;quot;, &amp;quot;Noto Color Emoji&amp;quot;; font-size: 14px; white-space: pre;&quot;&gt;及输出层各个单元的阈值&lt;/span&gt;&lt;/div&gt;" style="rounded=0;whiteSpace=wrap;html=1;align=center;" vertex="1" parent="WIyWlLk6GJQsqaUBKTNV-1">
          <mxGeometry x="750" y="640" width="240" height="60" as="geometry" />
        </mxCell>
        <mxCell id="NBgfvGatJcBxBiDtq3Ce-55" style="edgeStyle=orthogonalEdgeStyle;rounded=0;orthogonalLoop=1;jettySize=auto;html=1;exitX=0.5;exitY=1;exitDx=0;exitDy=0;entryX=0.5;entryY=0;entryDx=0;entryDy=0;" edge="1" parent="WIyWlLk6GJQsqaUBKTNV-1" source="NBgfvGatJcBxBiDtq3Ce-38" target="NBgfvGatJcBxBiDtq3Ce-39">
          <mxGeometry relative="1" as="geometry" />
        </mxCell>
        <mxCell id="NBgfvGatJcBxBiDtq3Ce-38" value="&lt;div style=&quot;&quot;&gt;&lt;span style=&quot;color: rgba(0, 0, 0, 0.85); font-family: -apple-system, BlinkMacSystemFont, &amp;quot;Segoe UI&amp;quot;, Roboto, &amp;quot;Helvetica Neue&amp;quot;, Arial, &amp;quot;Noto Sans&amp;quot;, sans-serif, &amp;quot;Apple Color Emoji&amp;quot;, &amp;quot;Segoe UI Emoji&amp;quot;, &amp;quot;Segoe UI Symbol&amp;quot;, &amp;quot;Noto Color Emoji&amp;quot;; font-size: 14px; text-align: start; white-space: pre; background-color: rgb(255, 255, 255);&quot;&gt;调整输入层至隐含层之间的连接权值&lt;/span&gt;&lt;/div&gt;&lt;div style=&quot;&quot;&gt;&lt;span style=&quot;color: rgba(0, 0, 0, 0.85); font-family: -apple-system, BlinkMacSystemFont, &amp;quot;Segoe UI&amp;quot;, Roboto, &amp;quot;Helvetica Neue&amp;quot;, Arial, &amp;quot;Noto Sans&amp;quot;, sans-serif, &amp;quot;Apple Color Emoji&amp;quot;, &amp;quot;Segoe UI Emoji&amp;quot;, &amp;quot;Segoe UI Symbol&amp;quot;, &amp;quot;Noto Color Emoji&amp;quot;; font-size: 14px; text-align: start; white-space: pre; background-color: rgb(255, 255, 255);&quot;&gt; 及隐含层各个单元的阈值&lt;/span&gt;&lt;br&gt;&lt;/div&gt;" style="rounded=0;whiteSpace=wrap;html=1;align=center;" vertex="1" parent="WIyWlLk6GJQsqaUBKTNV-1">
          <mxGeometry x="750" y="720" width="240" height="60" as="geometry" />
        </mxCell>
        <mxCell id="NBgfvGatJcBxBiDtq3Ce-56" style="edgeStyle=orthogonalEdgeStyle;rounded=0;orthogonalLoop=1;jettySize=auto;html=1;exitX=0.5;exitY=1;exitDx=0;exitDy=0;entryX=0.5;entryY=0;entryDx=0;entryDy=0;" edge="1" parent="WIyWlLk6GJQsqaUBKTNV-1" source="NBgfvGatJcBxBiDtq3Ce-39" target="NBgfvGatJcBxBiDtq3Ce-40">
          <mxGeometry relative="1" as="geometry" />
        </mxCell>
        <mxCell id="NBgfvGatJcBxBiDtq3Ce-39" value="&lt;span style=&quot;color: rgba(0, 0, 0, 0.85); font-family: -apple-system, BlinkMacSystemFont, &amp;quot;Segoe UI&amp;quot;, Roboto, &amp;quot;Helvetica Neue&amp;quot;, Arial, &amp;quot;Noto Sans&amp;quot;, sans-serif, &amp;quot;Apple Color Emoji&amp;quot;, &amp;quot;Segoe UI Emoji&amp;quot;, &amp;quot;Segoe UI Symbol&amp;quot;, &amp;quot;Noto Color Emoji&amp;quot;; font-size: 14px; text-align: start; white-space: pre; background-color: rgb(255, 255, 255);&quot;&gt;更新学习模式对&lt;/span&gt;" style="rounded=0;whiteSpace=wrap;html=1;" vertex="1" parent="WIyWlLk6GJQsqaUBKTNV-1">
          <mxGeometry x="805" y="800" width="130" height="30" as="geometry" />
        </mxCell>
        <mxCell id="NBgfvGatJcBxBiDtq3Ce-57" style="edgeStyle=orthogonalEdgeStyle;rounded=0;orthogonalLoop=1;jettySize=auto;html=1;exitX=0.5;exitY=1;exitDx=0;exitDy=0;entryX=0.5;entryY=0;entryDx=0;entryDy=0;" edge="1" parent="WIyWlLk6GJQsqaUBKTNV-1" source="NBgfvGatJcBxBiDtq3Ce-40" target="NBgfvGatJcBxBiDtq3Ce-41">
          <mxGeometry relative="1" as="geometry" />
        </mxCell>
        <mxCell id="NBgfvGatJcBxBiDtq3Ce-62" style="edgeStyle=orthogonalEdgeStyle;rounded=0;orthogonalLoop=1;jettySize=auto;html=1;exitX=0;exitY=0.5;exitDx=0;exitDy=0;" edge="1" parent="WIyWlLk6GJQsqaUBKTNV-1" source="NBgfvGatJcBxBiDtq3Ce-40">
          <mxGeometry relative="1" as="geometry">
            <mxPoint x="650" y="889.8333333333335" as="targetPoint" />
          </mxGeometry>
        </mxCell>
        <mxCell id="NBgfvGatJcBxBiDtq3Ce-40" value="&lt;span style=&quot;color: rgba(0, 0, 0, 0.85); font-family: -apple-system, BlinkMacSystemFont, &amp;quot;Segoe UI&amp;quot;, Roboto, &amp;quot;Helvetica Neue&amp;quot;, Arial, &amp;quot;Noto Sans&amp;quot;, sans-serif, &amp;quot;Apple Color Emoji&amp;quot;, &amp;quot;Segoe UI Emoji&amp;quot;, &amp;quot;Segoe UI Symbol&amp;quot;, &amp;quot;Noto Color Emoji&amp;quot;; font-size: 14px; text-align: start; white-space: pre; background-color: rgb(255, 255, 255);&quot;&gt;全部学习模式训练完毕？&lt;/span&gt;" style="rhombus;whiteSpace=wrap;html=1;" vertex="1" parent="WIyWlLk6GJQsqaUBKTNV-1">
          <mxGeometry x="760" y="850" width="220" height="80" as="geometry" />
        </mxCell>
        <mxCell id="NBgfvGatJcBxBiDtq3Ce-58" style="edgeStyle=orthogonalEdgeStyle;rounded=0;orthogonalLoop=1;jettySize=auto;html=1;exitX=0.5;exitY=1;exitDx=0;exitDy=0;entryX=0.5;entryY=0;entryDx=0;entryDy=0;" edge="1" parent="WIyWlLk6GJQsqaUBKTNV-1" source="NBgfvGatJcBxBiDtq3Ce-41" target="NBgfvGatJcBxBiDtq3Ce-42">
          <mxGeometry relative="1" as="geometry" />
        </mxCell>
        <mxCell id="NBgfvGatJcBxBiDtq3Ce-41" value="&lt;span style=&quot;color: rgba(0, 0, 0, 0.85); font-family: -apple-system, BlinkMacSystemFont, &amp;quot;Segoe UI&amp;quot;, Roboto, &amp;quot;Helvetica Neue&amp;quot;, Arial, &amp;quot;Noto Sans&amp;quot;, sans-serif, &amp;quot;Apple Color Emoji&amp;quot;, &amp;quot;Segoe UI Emoji&amp;quot;, &amp;quot;Segoe UI Symbol&amp;quot;, &amp;quot;Noto Color Emoji&amp;quot;; font-size: 14px; text-align: start; white-space: pre; background-color: rgb(255, 255, 255);&quot;&gt;更新学习次数&lt;/span&gt;" style="rounded=0;whiteSpace=wrap;html=1;" vertex="1" parent="WIyWlLk6GJQsqaUBKTNV-1">
          <mxGeometry x="805" y="950" width="130" height="30" as="geometry" />
        </mxCell>
        <mxCell id="NBgfvGatJcBxBiDtq3Ce-59" style="edgeStyle=orthogonalEdgeStyle;rounded=0;orthogonalLoop=1;jettySize=auto;html=1;exitX=0.5;exitY=1;exitDx=0;exitDy=0;entryX=0.5;entryY=0;entryDx=0;entryDy=0;" edge="1" parent="WIyWlLk6GJQsqaUBKTNV-1" source="NBgfvGatJcBxBiDtq3Ce-42" target="NBgfvGatJcBxBiDtq3Ce-44">
          <mxGeometry relative="1" as="geometry" />
        </mxCell>
        <mxCell id="NBgfvGatJcBxBiDtq3Ce-42" value="&lt;span style=&quot;color: rgba(0, 0, 0, 0.85); font-family: -apple-system, BlinkMacSystemFont, &amp;quot;Segoe UI&amp;quot;, Roboto, &amp;quot;Helvetica Neue&amp;quot;, Arial, &amp;quot;Noto Sans&amp;quot;, sans-serif, &amp;quot;Apple Color Emoji&amp;quot;, &amp;quot;Segoe UI Emoji&amp;quot;, &amp;quot;Segoe UI Symbol&amp;quot;, &amp;quot;Noto Color Emoji&amp;quot;; font-size: 14px; text-align: start; white-space: pre; background-color: rgb(255, 255, 255);&quot;&gt;误差＜ε 或学习次数＞N&lt;sub&gt;max&lt;/sub&gt; ？&lt;/span&gt;" style="rhombus;whiteSpace=wrap;html=1;" vertex="1" parent="WIyWlLk6GJQsqaUBKTNV-1">
          <mxGeometry x="755" y="1000" width="230" height="80" as="geometry" />
        </mxCell>
        <mxCell id="NBgfvGatJcBxBiDtq3Ce-44" value="&lt;span style=&quot;color: rgba(0, 0, 0, 0.85); font-family: -apple-system, BlinkMacSystemFont, &amp;quot;Segoe UI&amp;quot;, Roboto, &amp;quot;Helvetica Neue&amp;quot;, Arial, &amp;quot;Noto Sans&amp;quot;, sans-serif, &amp;quot;Apple Color Emoji&amp;quot;, &amp;quot;Segoe UI Emoji&amp;quot;, &amp;quot;Segoe UI Symbol&amp;quot;, &amp;quot;Noto Color Emoji&amp;quot;; font-size: 14px; text-align: start; white-space: pre; background-color: rgb(255, 255, 255);&quot;&gt;学习结束&lt;/span&gt;" style="rounded=0;whiteSpace=wrap;html=1;" vertex="1" parent="WIyWlLk6GJQsqaUBKTNV-1">
          <mxGeometry x="825" y="1100" width="90" height="30" as="geometry" />
        </mxCell>
        <mxCell id="NBgfvGatJcBxBiDtq3Ce-60" value="Y" style="text;html=1;align=center;verticalAlign=middle;resizable=0;points=[];autosize=1;strokeColor=none;fillColor=none;" vertex="1" parent="WIyWlLk6GJQsqaUBKTNV-1">
          <mxGeometry x="875" y="1074" width="30" height="30" as="geometry" />
        </mxCell>
        <mxCell id="NBgfvGatJcBxBiDtq3Ce-61" value="" style="endArrow=classic;html=1;rounded=0;exitX=0;exitY=0.5;exitDx=0;exitDy=0;" edge="1" parent="WIyWlLk6GJQsqaUBKTNV-1" source="NBgfvGatJcBxBiDtq3Ce-42">
          <mxGeometry width="50" height="50" relative="1" as="geometry">
            <mxPoint x="690" y="1010" as="sourcePoint" />
            <mxPoint x="870" y="380" as="targetPoint" />
            <Array as="points">
              <mxPoint x="650" y="1040" />
              <mxPoint x="650" y="680" />
              <mxPoint x="650" y="380" />
            </Array>
          </mxGeometry>
        </mxCell>
        <mxCell id="NBgfvGatJcBxBiDtq3Ce-63" value="Y" style="text;html=1;align=center;verticalAlign=middle;resizable=0;points=[];autosize=1;strokeColor=none;fillColor=none;" vertex="1" parent="WIyWlLk6GJQsqaUBKTNV-1">
          <mxGeometry x="870" y="926" width="30" height="30" as="geometry" />
        </mxCell>
        <mxCell id="NBgfvGatJcBxBiDtq3Ce-64" value="N" style="text;html=1;align=center;verticalAlign=middle;resizable=0;points=[];autosize=1;strokeColor=none;fillColor=none;" vertex="1" parent="WIyWlLk6GJQsqaUBKTNV-1">
          <mxGeometry x="660" y="1044" width="30" height="30" as="geometry" />
        </mxCell>
        <mxCell id="NBgfvGatJcBxBiDtq3Ce-66" value="N" style="text;html=1;align=center;verticalAlign=middle;resizable=0;points=[];autosize=1;strokeColor=none;fillColor=none;" vertex="1" parent="WIyWlLk6GJQsqaUBKTNV-1">
          <mxGeometry x="660" y="896" width="30" height="30" as="geometry" />
        </mxCell>
      </root>
    </mxGraphModel>
  </diagram>
</mxfile>
